# xmcd
#
# Track frame offsets: 
#        164
#        23286
#        35135
#        55014
#        71844
#        91496
#        107012
#        132621
#        149749
#        170348
#        188128
#        208136
#
# Disc length: 3000 seconds
#
# Revision: 0
# Processed by: cddbd v1.5.2PL0 Copyright (c) Steve Scherf et al.
# Submitted via: ExactAudioCopy v0.99pb4
#
DISCID=b30bb60c
DTITLE=Jimmy Barnes - Country and Eastern
DYEAR=2000
DGENRE=Country
TTITLE0=Grandaddy's Farm
TTITLE1=4 Leave Clover
TTITLE2=Coming Back for More
TTITLE3=Diesel Cowboy
TTITLE4=Shipwrecked Heart
TTITLE5=Country and Eastern
TTITLE6=Camping in the State of Maine
TTITLE7=Sound of a Breaking Heart
TTITLE8=Continental Divide
TTITLE9=Penobscot County Line
TTITLE10=Gringo Daydream
TTITLE11=Make Gahth Brooks Go Away
EXTD=
EXTT0=
EXTT1=
EXTT2=
EXTT3=
EXTT4=
EXTT5=
EXTT6=
EXTT7=
EXTT8=
EXTT9=
EXTT10=
EXTT11=
PLAYORDER=
